<svg width="16" height="16" viewBox="0 0 16 16" fill="none" xmlns="http://www.w3.org/2000/svg">
<g clip-path="url(#clip0_201_72410)">
<path d="M15.9999 8C15.9999 9.58225 15.5308 11.129 14.6517 12.4446C13.7726 13.7602 12.5232 14.7855 11.0614 15.391C9.5996 15.9965 7.99107 16.155 6.43922 15.8463C4.88737 15.5376 3.46191 14.7757 2.34309 13.6569C1.22427 12.538 0.462342 11.1126 0.15366 9.56072C-0.155021 8.00887 0.00340521 6.40034 0.608906 4.93853C1.21441 3.47672 2.23979 2.22729 3.55538 1.34824C4.87097 0.469192 6.41769 0 7.99994 0C10.1217 0 12.1565 0.842855 13.6568 2.34315C15.1571 3.84344 15.9999 5.87827 15.9999 8Z" fill="#FF9B05"/>
<path fill-rule="evenodd" clip-rule="evenodd" d="M5.6858 3.65304L7.52434 4.14541L7.93525 2.61377L8.85452 2.86322L8.45961 4.33159L9.20943 4.53304L9.60507 3.04868L10.5403 3.29886L10.1374 4.79122C10.1374 4.79122 11.6647 5.12941 12.024 6.37159C12.3833 7.61377 11.2342 8.26613 10.8793 8.29086C10.8793 8.29086 12.2174 9.02468 11.7578 10.4683C11.2982 11.912 9.88725 12.1701 8.40289 11.8392L7.99998 13.3869L7.06471 13.1367L7.47561 11.613L6.7338 11.4109L6.32289 12.9454L5.39489 12.696L5.80652 11.1687L3.91925 10.6596L4.39489 9.60359C4.39489 9.60359 4.92725 9.74904 5.1287 9.79704C5.33016 9.84504 5.45961 9.63559 5.51634 9.42613C5.57307 9.21668 6.42761 5.74541 6.50834 5.45959C6.58907 5.17377 6.55634 4.9505 6.21743 4.8625C5.87852 4.7745 5.41743 4.63704 5.41743 4.63704L5.6858 3.65304ZM7.54034 8.25013L7.03125 10.2741C7.03125 10.2741 9.55561 11.1854 9.87852 9.90322C10.2014 8.62104 7.54034 8.25013 7.54034 8.25013ZM7.77452 7.29013L8.27416 5.43559C8.27416 5.43559 10.4356 5.8225 10.1694 6.8545C9.90325 7.8865 8.62907 7.49086 7.77452 7.29013Z" fill="white"/>
</g>
<defs>
<clipPath id="clip0_201_72410">
<rect width="16" height="16" fill="white"/>
</clipPath>
</defs>
</svg>
