<svg width="14" height="14" viewBox="0 0 14 14" fill="none" xmlns="http://www.w3.org/2000/svg">
<path d="M7.00228 9.55216C8.41176 9.55216 9.55436 8.40956 9.55436 7.00008C9.55436 5.5906 8.41176 4.448 7.00228 4.448C5.5928 4.448 4.4502 5.5906 4.4502 7.00008C4.4502 8.40956 5.5928 9.55216 7.00228 9.55216Z" stroke="white" stroke-width="1.16667" stroke-linecap="round" stroke-linejoin="round"/>
<path d="M9.91894 1.16675H4.08561C2.47478 1.16675 1.16895 2.47258 1.16895 4.08341V9.91675C1.16895 11.5275 2.47478 12.8334 4.08561 12.8334H9.91894C11.5297 12.8334 12.8356 11.5275 12.8356 9.91675V4.08341C12.8356 2.47258 11.5297 1.16675 9.91894 1.16675Z" stroke="white" stroke-width="1.16667" stroke-linecap="round" stroke-linejoin="round"/>
<path d="M10.3786 3.8099C10.2779 3.8099 10.1963 3.72828 10.1963 3.6276C10.1963 3.52693 10.2779 3.44531 10.3786 3.44531" stroke="white" stroke-width="1.16667"/>
<path d="M10.3809 3.8099C10.4816 3.8099 10.5632 3.72828 10.5632 3.6276C10.5632 3.52693 10.4816 3.44531 10.3809 3.44531" stroke="white" stroke-width="1.16667"/>
</svg>
