<svg width="311" height="81" viewBox="0 0 311 81" fill="none" xmlns="http://www.w3.org/2000/svg">
<g filter="url(#filter0_di_201_72667)">
<path d="M46.9049 26.1626H37.7109V45H33.539V26.1626H24.329V21.9908H46.9049V26.1626ZM67.0535 39.1434C67.0535 39.8601 66.9626 40.5073 66.7808 41.0849C66.5989 41.6518 66.3582 42.1546 66.0587 42.5932C65.7592 43.0211 65.4115 43.3901 65.0158 43.7003C64.62 43.9998 64.2028 44.2459 63.7642 44.4384C63.3363 44.631 62.8978 44.7754 62.4485 44.8716C62.0099 44.9572 61.5927 45 61.1969 45H53.6716C53.094 45 52.4629 44.8984 51.7782 44.6951C51.0936 44.4919 50.4572 44.1603 49.8688 43.7003C49.2912 43.2297 48.8045 42.6253 48.4087 41.8872C48.0236 41.1384 47.8311 40.2238 47.8311 39.1434V33.4954C47.8311 32.4257 48.0236 31.5218 48.4087 30.7837C48.8045 30.0349 49.2912 29.4305 49.8688 28.9706C50.4572 28.4999 51.0936 28.163 51.7782 27.9597C52.4629 27.7565 53.094 27.6549 53.6716 27.6549H61.1969C62.2666 27.6549 63.1759 27.8474 63.9247 28.2325C64.6735 28.6176 65.2778 29.1043 65.7378 29.6926C66.1978 30.2703 66.5294 30.9014 66.7326 31.586C66.9466 32.2706 67.0535 32.9071 67.0535 33.4954V39.1434ZM62.8817 33.5275C62.8817 32.9499 62.7373 32.522 62.4485 32.2439C62.1597 31.9657 61.7425 31.8267 61.1969 31.8267H53.7037C53.1475 31.8267 52.7249 31.9711 52.4361 32.2599C52.1473 32.538 52.0029 32.9499 52.0029 33.4954V39.1434C52.0029 39.689 52.1473 40.1061 52.4361 40.395C52.7249 40.6838 53.1475 40.8282 53.7037 40.8282H61.1969C61.7639 40.8282 62.1864 40.6838 62.4645 40.395C62.7426 40.1061 62.8817 39.689 62.8817 39.1434V33.5275ZM91.4863 45H85.4692L77.0614 36.881C76.5907 36.4531 76.3715 35.9183 76.4036 35.2764C76.4249 34.9769 76.4998 34.6988 76.6282 34.4421C76.7672 34.1747 76.9544 33.95 77.1898 33.7682L84.8114 27.6228H91.4863L81.6665 35.5332L91.4863 45ZM75.3446 45H71.1727V20.3221H75.3446V45ZM112.405 33.3991C112.405 33.9768 112.303 34.6025 112.1 35.2764C111.897 35.9397 111.565 36.5601 111.105 37.1377C110.656 37.7047 110.062 38.1807 109.324 38.5658C108.597 38.9509 107.709 39.1434 106.661 39.1434H99.1355V35.1802H106.661C107.228 35.1802 107.666 35.009 107.977 34.6667C108.287 34.3137 108.442 33.8805 108.442 33.367C108.442 32.8215 108.265 32.3936 107.912 32.0834C107.57 31.7732 107.153 31.6181 106.661 31.6181H99.1355C98.5685 31.6181 98.13 31.7946 97.8197 32.1476C97.5095 32.4899 97.3544 32.9178 97.3544 33.4312V39.2557C97.3544 39.812 97.5256 40.2452 97.8679 40.5554C98.2209 40.8656 98.6541 41.0207 99.1676 41.0207H106.661V45H99.1355C98.5578 45 97.9321 44.8984 97.2582 44.6951C96.5949 44.4919 95.9745 44.1656 95.3969 43.7164C94.8299 43.2564 94.3539 42.6627 93.9688 41.9353C93.5837 41.1972 93.3912 40.304 93.3912 39.2557V33.3991C93.3912 32.8215 93.4928 32.2011 93.6961 31.5379C93.8993 30.8639 94.2256 30.2435 94.6748 29.6766C95.1348 29.0989 95.7285 28.6176 96.4559 28.2325C97.194 27.8474 98.0872 27.6549 99.1355 27.6549H106.661C107.238 27.6549 107.859 27.7565 108.522 27.9597C109.196 28.163 109.816 28.4946 110.383 28.9545C110.961 29.4038 111.442 29.9975 111.827 30.7356C112.213 31.463 112.405 32.3508 112.405 33.3991ZM134.928 45H130.757V35.3727C130.757 34.8272 130.66 34.3405 130.468 33.9126C130.286 33.474 130.035 33.0996 129.714 32.7894C129.393 32.4792 129.013 32.2439 128.574 32.0834C128.147 31.9122 127.681 31.8267 127.178 31.8267H119.878V45H115.706V29.7247C115.706 29.4359 115.759 29.1685 115.866 28.9224C115.973 28.6657 116.123 28.4464 116.316 28.2646C116.508 28.072 116.733 27.9223 116.99 27.8153C117.246 27.7083 117.519 27.6549 117.808 27.6549H127.211C127.735 27.6549 128.286 27.7137 128.863 27.8314C129.452 27.949 130.029 28.1416 130.596 28.409C131.174 28.6657 131.719 28.9973 132.233 29.4038C132.757 29.7996 133.217 30.2863 133.613 30.8639C134.019 31.4309 134.34 32.0887 134.575 32.8375C134.811 33.5863 134.928 34.4314 134.928 35.3727V45Z" fill="white"/>
<path d="M171.856 45H152.826C152.527 45 152.249 44.9465 151.992 44.8395C151.735 44.7326 151.51 44.5882 151.318 44.4063C151.136 44.2138 150.992 43.9891 150.885 43.7324C150.778 43.4757 150.724 43.1976 150.724 42.898V21.9908H154.896V40.8282H171.856V45ZM193.818 39.1434C193.818 39.8601 193.727 40.5073 193.545 41.0849C193.363 41.6518 193.123 42.1546 192.823 42.5932C192.524 43.0211 192.176 43.3901 191.78 43.7003C191.384 43.9998 190.967 44.2459 190.529 44.4384C190.101 44.631 189.662 44.7754 189.213 44.8716C188.774 44.9572 188.357 45 187.961 45H180.436C179.858 45 179.227 44.8984 178.543 44.6951C177.858 44.4919 177.221 44.1603 176.633 43.7003C176.056 43.2297 175.569 42.6253 175.173 41.8872C174.788 41.1384 174.595 40.2238 174.595 39.1434V33.4954C174.595 32.4257 174.788 31.5218 175.173 30.7837C175.569 30.0349 176.056 29.4305 176.633 28.9706C177.221 28.4999 177.858 28.163 178.543 27.9597C179.227 27.7565 179.858 27.6549 180.436 27.6549H187.961C189.031 27.6549 189.94 27.8474 190.689 28.2325C191.438 28.6176 192.042 29.1043 192.502 29.6926C192.962 30.2703 193.294 30.9014 193.497 31.586C193.711 32.2706 193.818 32.9071 193.818 33.4954V39.1434ZM189.646 33.5275C189.646 32.9499 189.502 32.522 189.213 32.2439C188.924 31.9657 188.507 31.8267 187.961 31.8267H180.468C179.912 31.8267 179.489 31.9711 179.2 32.2599C178.912 32.538 178.767 32.9499 178.767 33.4954V39.1434C178.767 39.689 178.912 40.1061 179.2 40.395C179.489 40.6838 179.912 40.8282 180.468 40.8282H187.961C188.528 40.8282 188.951 40.6838 189.229 40.395C189.507 40.1061 189.646 39.689 189.646 39.1434V33.5275ZM216.839 42.898C216.839 43.1976 216.785 43.4757 216.678 43.7324C216.571 43.9891 216.421 44.2138 216.229 44.4063C216.047 44.5882 215.828 44.7326 215.571 44.8395C215.325 44.9465 215.058 45 214.769 45H205.334C204.821 45 204.27 44.9412 203.681 44.8235C203.104 44.7058 202.531 44.5186 201.964 44.2619C201.398 43.9945 200.847 43.6629 200.312 43.2671C199.788 42.8606 199.328 42.3739 198.932 41.807C198.536 41.2293 198.215 40.5661 197.969 39.8173C197.734 39.0685 197.616 38.2235 197.616 37.2821V27.6549H201.788V37.2821C201.788 37.8277 201.879 38.3197 202.061 38.7583C202.253 39.1862 202.51 39.5552 202.831 39.8655C203.152 40.1757 203.526 40.4163 203.954 40.5875C204.393 40.748 204.863 40.8282 205.366 40.8282H212.667V27.6549H216.839V42.898ZM240.469 45H236.297V35.3727C236.297 34.8272 236.201 34.3405 236.008 33.9126C235.827 33.474 235.575 33.0996 235.254 32.7894C234.933 32.4792 234.554 32.2439 234.115 32.0834C233.687 31.9122 233.222 31.8267 232.719 31.8267H225.418V45H221.247V29.7247C221.247 29.4359 221.3 29.1685 221.407 28.9224C221.514 28.6657 221.664 28.4464 221.856 28.2646C222.049 28.072 222.274 27.9223 222.53 27.8153C222.787 27.7083 223.06 27.6549 223.349 27.6549H232.751C233.275 27.6549 233.826 27.7137 234.404 27.8314C234.992 27.949 235.57 28.1416 236.137 28.409C236.714 28.6657 237.26 28.9973 237.773 29.4038C238.298 29.7996 238.758 30.2863 239.153 30.8639C239.56 31.4309 239.881 32.0887 240.116 32.8375C240.351 33.5863 240.469 34.4314 240.469 35.3727V45ZM263.49 46.6687C263.49 47.3854 263.399 48.0272 263.217 48.5942C263.035 49.1718 262.795 49.6746 262.495 50.1025C262.196 50.541 261.848 50.9101 261.452 51.2096C261.056 51.5198 260.639 51.7712 260.201 51.9637C259.773 52.1563 259.334 52.2953 258.885 52.3809C258.446 52.4772 258.029 52.5253 257.633 52.5253H250.108V48.3535H257.633C258.2 48.3535 258.623 48.2091 258.901 47.9203C259.179 47.6315 259.318 47.2143 259.318 46.6687V33.4954C259.318 32.9499 259.179 32.538 258.901 32.2599C258.623 31.9711 258.2 31.8267 257.633 31.8267H250.108C249.594 31.8267 249.188 31.9871 248.888 32.308C248.589 32.6182 248.439 33.014 248.439 33.4954V39.1434C248.439 39.689 248.584 40.1061 248.872 40.395C249.161 40.6838 249.584 40.8282 250.14 40.8282H257.633V45H250.108C249.712 45 249.295 44.9572 248.856 44.8716C248.418 44.7754 247.979 44.631 247.541 44.4384C247.113 44.2459 246.701 43.9998 246.305 43.7003C245.909 43.3901 245.562 43.0211 245.262 42.5932C244.963 42.1546 244.722 41.6518 244.54 41.0849C244.358 40.5073 244.267 39.8601 244.267 39.1434V33.4954C244.267 33.0996 244.31 32.6824 244.396 32.2439C244.492 31.8053 244.636 31.3721 244.829 30.9442C245.022 30.5056 245.268 30.0884 245.567 29.6926C245.877 29.2968 246.246 28.9492 246.674 28.6497C247.113 28.3502 247.616 28.1095 248.182 27.9276C248.749 27.7458 249.391 27.6549 250.108 27.6549H257.633C258.029 27.6549 258.446 27.703 258.885 27.7993C259.334 27.8848 259.773 28.0239 260.201 28.2164C260.639 28.409 261.056 28.6604 261.452 28.9706C261.848 29.2701 262.196 29.6391 262.495 30.0777C262.795 30.5056 263.035 31.003 263.217 31.5699C263.399 32.1369 263.49 32.7787 263.49 33.4954V46.6687ZM286.462 33.3991C286.462 33.9768 286.361 34.6025 286.158 35.2764C285.954 35.9397 285.623 36.5601 285.163 37.1377C284.713 37.7047 284.12 38.1807 283.382 38.5658C282.654 38.9509 281.766 39.1434 280.718 39.1434H273.193V35.1802H280.718C281.285 35.1802 281.724 35.009 282.034 34.6667C282.344 34.3137 282.499 33.8805 282.499 33.367C282.499 32.8215 282.323 32.3936 281.97 32.0834C281.627 31.7732 281.21 31.6181 280.718 31.6181H273.193C272.626 31.6181 272.187 31.7946 271.877 32.1476C271.567 32.4899 271.412 32.9178 271.412 33.4312V39.2557C271.412 39.812 271.583 40.2452 271.925 40.5554C272.278 40.8656 272.711 41.0207 273.225 41.0207H280.718V45H273.193C272.615 45 271.989 44.8984 271.316 44.6951C270.652 44.4919 270.032 44.1656 269.454 43.7164C268.887 43.2564 268.411 42.6627 268.026 41.9353C267.641 41.1972 267.449 40.304 267.449 39.2557V33.3991C267.449 32.8215 267.55 32.2011 267.753 31.5379C267.957 30.8639 268.283 30.2435 268.732 29.6766C269.192 29.0989 269.786 28.6176 270.513 28.2325C271.251 27.8474 272.145 27.6549 273.193 27.6549H280.718C281.296 27.6549 281.916 27.7565 282.579 27.9597C283.253 28.163 283.874 28.4946 284.441 28.9545C285.018 29.4038 285.5 29.9975 285.885 30.7356C286.27 31.463 286.462 32.3508 286.462 33.3991Z" fill="#2C5DC9"/>
</g>
<defs>
<filter id="filter0_di_201_72667" x="0.328979" y="0.322021" width="310.133" height="80.2034" filterUnits="userSpaceOnUse" color-interpolation-filters="sRGB">
<feFlood flood-opacity="0" result="BackgroundImageFix"/>
<feColorMatrix in="SourceAlpha" type="matrix" values="0 0 0 0 0 0 0 0 0 0 0 0 0 0 0 0 0 0 127 0" result="hardAlpha"/>
<feOffset dy="4"/>
<feGaussianBlur stdDeviation="12"/>
<feComposite in2="hardAlpha" operator="out"/>
<feColorMatrix type="matrix" values="0 0 0 0 1 0 0 0 0 1 0 0 0 0 1 0 0 0 0.3 0"/>
<feBlend mode="normal" in2="BackgroundImageFix" result="effect1_dropShadow_201_72667"/>
<feBlend mode="normal" in="SourceGraphic" in2="effect1_dropShadow_201_72667" result="shape"/>
<feColorMatrix in="SourceAlpha" type="matrix" values="0 0 0 0 0 0 0 0 0 0 0 0 0 0 0 0 0 0 127 0" result="hardAlpha"/>
<feOffset dy="2"/>
<feGaussianBlur stdDeviation="0.5"/>
<feComposite in2="hardAlpha" operator="arithmetic" k2="-1" k3="1"/>
<feColorMatrix type="matrix" values="0 0 0 0 1 0 0 0 0 1 0 0 0 0 1 0 0 0 1 0"/>
<feBlend mode="normal" in2="shape" result="effect2_innerShadow_201_72667"/>
</filter>
</defs>
</svg>
