<svg width="14" height="14" viewBox="0 0 14 14" fill="none" xmlns="http://www.w3.org/2000/svg">
<path d="M13.6014 3.75476C13.6429 3.72026 13.674 3.67492 13.6913 3.62378C13.7085 3.57265 13.7113 3.51772 13.6992 3.46512C13.6871 3.41251 13.6606 3.3643 13.6228 3.32584C13.5849 3.28738 13.5371 3.26017 13.4847 3.24726L13.0239 3.13643C12.9814 3.12576 12.942 3.10549 12.9086 3.07717C12.8752 3.04885 12.8488 3.01324 12.8314 2.9731C12.8127 2.93392 12.803 2.89107 12.803 2.84768C12.803 2.80429 12.8127 2.76144 12.8314 2.72226L13.0939 2.2031C13.1188 2.15227 13.1284 2.09528 13.1215 2.03907C13.1147 1.98287 13.0916 1.92989 13.0551 1.88659C13.0186 1.8433 12.9703 1.81156 12.916 1.79525C12.8618 1.77895 12.804 1.77878 12.7497 1.79476L11.583 2.12143C11.5401 2.13328 11.4949 2.13469 11.4513 2.12556C11.4076 2.11643 11.3668 2.09701 11.3322 2.06893C10.8989 1.74393 10.3836 1.54603 9.84413 1.49738C9.30466 1.44874 8.7623 1.55128 8.27782 1.79352C7.79335 2.03576 7.3859 2.40812 7.10113 2.86888C6.81636 3.32964 6.66553 3.8606 6.66553 4.40226V4.61226C6.66579 4.64809 6.65285 4.68276 6.62918 4.70966C6.60551 4.73656 6.57277 4.7538 6.5372 4.7581C4.89803 4.9506 3.32886 4.11643 1.6372 2.1681C1.60152 2.12599 1.55463 2.09486 1.50196 2.07834C1.4493 2.06182 1.39303 2.06058 1.3397 2.07476C1.28889 2.09612 1.24533 2.13171 1.21428 2.17725C1.18324 2.22279 1.16602 2.27633 1.1647 2.33143C0.928297 3.29101 1.02285 4.3023 1.43303 5.20143C1.4458 5.22467 1.45249 5.25075 1.45249 5.27726C1.45249 5.30378 1.4458 5.32986 1.43303 5.3531C1.41734 5.37629 1.39506 5.39424 1.36906 5.40464C1.34307 5.41504 1.31455 5.4174 1.2872 5.41143L0.62803 5.2831C0.581392 5.27677 0.533922 5.28138 0.489374 5.29657C0.444827 5.31176 0.404425 5.3371 0.371363 5.3706C0.339553 5.40448 0.316124 5.44535 0.302955 5.48992C0.289786 5.53449 0.287243 5.58153 0.29553 5.62726C0.345894 6.07494 0.496298 6.50556 0.735608 6.88724C0.974918 7.26893 1.29701 7.5919 1.67803 7.83226C1.70086 7.84608 1.71945 7.8659 1.73179 7.88956C1.74414 7.91321 1.74975 7.9398 1.74803 7.96643C1.74774 7.99407 1.73928 8.02101 1.72371 8.04384C1.70814 8.06668 1.68615 8.0844 1.66053 8.09476L1.34553 8.21726C1.27093 8.24994 1.21223 8.31073 1.1822 8.38643C1.16647 8.42332 1.15837 8.463 1.15837 8.5031C1.15837 8.54319 1.16647 8.58288 1.1822 8.61976C1.35317 8.99387 1.61232 9.32093 1.93744 9.57289C2.26255 9.82486 2.64393 9.99421 3.04886 10.0664C3.07765 10.075 3.10339 10.0917 3.12302 10.1144C3.14266 10.1371 3.15539 10.165 3.1597 10.1948C3.16258 10.226 3.15571 10.2573 3.14004 10.2845C3.12437 10.3117 3.10067 10.3333 3.0722 10.3464C2.28201 10.67 1.4352 10.8326 0.581363 10.8248C0.504008 10.8093 0.423676 10.8252 0.358038 10.8689C0.292401 10.9127 0.246834 10.9807 0.231363 11.0581C0.215892 11.1355 0.231784 11.2158 0.275543 11.2814C0.319301 11.3471 0.387342 11.3926 0.464697 11.4081C1.94994 12.1152 3.5684 12.499 5.21303 12.5339C6.65928 12.5553 8.0797 12.1495 9.29636 11.3673C10.2976 10.7001 11.118 9.79522 11.684 8.73348C12.2499 7.67174 12.544 6.48627 12.5397 5.2831V4.7756C12.5396 4.73317 12.549 4.69127 12.5672 4.65293C12.5854 4.61459 12.6118 4.58077 12.6447 4.55393L13.6014 3.75476Z" fill="white"/>
</svg>
